# xmcd CD database file
# Copyright (C) 1993-1998 Ti Kan
#
# Track frame offsets:
#	150
#	16980
#	34015
#	53047
#	68057
#	81152
#	98425
#	109987
#	126737
#	143427
#	164235
#	182745
#	196162
#	212507
#
# Disc length: 3292 seconds
#
# Revision: 2
# Processed by: cddbd v1.4PL0 Copyright (c) Steve Scherf et al.
# Submitted via: Gronk 1.4
#
DISCID=bf0cda0e
DTITLE=the Revenants - Artists And Whores
DYEAR=1900
DGENRE=country
TTITLE0=Forever
TTITLE1=Flower On My Grave
TTITLE2=Dead And Gone
TTITLE3=Marie
TTITLE4=That Girl's Insane
TTITLE5=Light At The End Of The Bottle
TTITLE6=Every Single Minute With You Is Like A Minute Alone
TTITLE7=She
TTITLE8=Blood River
TTITLE9=Cradle To The Grave
TTITLE10=Even Hookers Say Goodbye
TTITLE11=Bottle And A Gun
TTITLE12=Remember Me
TTITLE13=Prodigal Son
EXTD=
EXTT0=
EXTT1=
EXTT2=
EXTT3=
EXTT4=
EXTT5=
EXTT6=
EXTT7=
EXTT8=
EXTT9=
EXTT10=
EXTT11=
EXTT12=
EXTT13=
PLAYORDER=
